<svg width="44" height="42" viewBox="0 0 44 42" fill="none" xmlns="http://www.w3.org/2000/svg">
<path d="M8.81543 0.409088C15.2925 -1.36027 22.0647 2.77386 23.9414 9.64346C24.8181 12.8529 24.4704 16.091 23.1914 18.8114L43.5293 37.0048L39.5986 41.3974L19.4785 23.3983C18.3449 24.2449 17.0453 24.8943 15.6113 25.286C9.13441 27.0552 2.3621 22.9201 0.485352 16.0507C-1.39098 9.18133 2.3387 2.17865 8.81543 0.409088ZM13 4.99991C8.58178 4.99998 5 8.80553 5 13.4999C5.00014 18.1942 8.58187 21.9998 13 21.9999C17.4182 21.9999 20.9999 18.1942 21 13.4999C21 8.80549 17.4183 4.99991 13 4.99991Z" fill="#0F0000"/>
</svg>
