<svg width="140" height="44" viewBox="0 0 140 44" fill="none" xmlns="http://www.w3.org/2000/svg">
<g clip-path="url(#clip0_118_228)">
<path d="M25 -3C38.8071 -3 50 8.19288 50 22C50 35.8071 38.8071 47 25 47C11.1929 47 0 35.8071 0 22C0 8.19288 11.1929 -3 25 -3ZM27.3379 13.1836C27.1426 13.7073 27.1245 14.2801 27.2842 14.9014C29.2461 15.0967 30.236 15.359 30.2539 15.6875C30.3072 17.3566 30.3522 19.6389 30.3877 22.5332L26.2988 22.5859C24.9938 22.6214 23.9148 22.6128 23.0625 22.5596C23.0625 20.4288 23.1161 18.1379 23.2227 15.6875C23.2405 15.359 24.2304 15.0967 26.1924 14.9014C26.3343 14.3156 26.3258 13.7696 26.166 13.2637C25.367 13.2637 24.4211 13.2723 23.3291 13.29C22.2371 13.3078 21.4999 13.3174 21.1182 13.3174C20.5943 13.3174 19.6617 13.2944 18.3213 13.25C16.9899 13.2056 15.9335 13.1836 15.1523 13.1836C14.966 13.7605 14.9478 14.3333 15.0986 14.9014C17.0606 15.0967 18.0505 15.359 18.0684 15.6875C18.1571 17.7739 18.2021 20.2466 18.2021 23.1055C18.2021 25.9021 18.1485 28.6946 18.042 31.4824C18.0238 31.8108 17.0518 32.0723 15.126 32.2676C14.904 32.8003 14.904 33.3737 15.126 33.9863C17.9932 33.9153 19.6621 33.8789 20.1328 33.8789C20.8431 33.8789 22.8363 33.9153 26.1123 33.9863C26.3076 33.3915 26.3344 32.8448 26.1924 32.3477C26.1213 32.3299 25.9882 32.3127 25.793 32.2949C25.6065 32.2772 25.4553 32.259 25.3398 32.2412C25.2333 32.2235 25.0867 32.2014 24.9004 32.1748C24.7229 32.1482 24.5763 32.1214 24.4609 32.0947C24.3456 32.0681 24.2124 32.0374 24.0615 32.002C23.9196 31.9665 23.7998 31.931 23.7021 31.8955C23.6134 31.8511 23.5243 31.8109 23.4355 31.7754C23.3468 31.7399 23.2845 31.6949 23.249 31.6416C23.2137 31.5885 23.1963 31.5355 23.1963 31.4824C23.1075 29.0764 23.0625 26.8478 23.0625 24.7969C23.1335 24.7969 23.4983 24.7921 24.1553 24.7832C24.821 24.7743 25.5355 24.7705 26.2988 24.7705C27.2843 24.7705 28.6475 24.7877 30.3877 24.8232C30.3699 25.7466 30.3249 27.9752 30.2539 31.5088C30.2539 31.8195 29.2821 32.0723 27.3379 32.2676C27.1248 32.8003 27.1248 33.3737 27.3379 33.9863C30.6139 33.9153 32.6071 33.8789 33.3174 33.8789C33.788 33.8789 35.4576 33.9153 38.3252 33.9863C38.5116 33.4092 38.5337 32.8358 38.3916 32.2676C36.4211 32.0723 35.4264 31.8108 35.4082 31.4824C35.3194 29.2807 35.2754 26.6526 35.2754 23.5986C35.2754 20.5267 35.3194 17.8893 35.4082 15.6875C35.4261 15.359 36.4207 15.0967 38.3916 14.9014C38.5335 14.3156 38.5202 13.7696 38.3516 13.2637C37.4815 13.2637 36.4026 13.2723 35.1152 13.29C33.8367 13.3078 32.9886 13.3174 32.5713 13.3174C30.3696 13.3174 28.6252 13.2724 27.3379 13.1836ZM37.8184 13.7568C37.9071 13.9521 37.9071 14.1609 37.8184 14.3828C34.871 14.5604 33.3879 14.9864 33.3701 15.6611C33.2725 17.8629 33.2236 20.5091 33.2236 23.5986C33.2236 26.6703 33.2725 29.3071 33.3701 31.5088C33.3879 32.1835 34.8709 32.6095 37.8184 32.7871C37.8894 33.0446 37.8894 33.2533 37.8184 33.4131C36.0694 33.3598 34.2494 33.333 32.3584 33.333C30.7781 33.333 29.2329 33.3598 27.7236 33.4131C27.6527 33.138 27.6526 32.9291 27.7236 32.7871C29.7745 32.5918 30.8008 32.1658 30.8008 31.5088C30.8718 28.5081 30.9158 26.0179 30.9336 24.0381C29.3 23.9759 27.7549 23.9443 26.2988 23.9443C24.9582 23.9443 23.1957 23.9664 21.0117 24.0107C21.0117 26.3369 21.0567 28.8364 21.1455 31.5088C21.1633 32.1835 22.6454 32.6095 25.5928 32.7871C25.6638 33.0623 25.6638 33.271 25.5928 33.4131C23.8438 33.3598 22.0238 33.333 20.1328 33.333C18.5525 33.333 17.0073 33.3598 15.498 33.4131C15.4271 33.138 15.427 32.9291 15.498 32.7871C17.5401 32.5918 18.5701 32.1658 18.5879 31.5088C18.6944 28.721 18.748 25.9199 18.748 23.1055C18.748 20.229 18.703 17.7475 18.6143 15.6611C18.5965 15.0042 17.5672 14.5782 15.5254 14.3828C15.4544 14.1254 15.4544 13.9166 15.5254 13.7568C17.5315 13.8278 19.0761 13.8633 20.1592 13.8633C21.4732 13.8633 23.294 13.8279 25.6201 13.7568C25.6733 14.0053 25.6734 14.2142 25.6201 14.3828C22.6725 14.5604 21.1896 14.9864 21.1719 15.6611C21.0653 17.6232 21.0117 20.0961 21.0117 23.0791C22.1037 23.1146 23.8662 23.1318 26.2988 23.1318C27.7549 23.1318 29.3 23.105 30.9336 23.0518C30.8981 19.7582 30.854 17.2947 30.8008 15.6611C30.783 15.0041 29.7568 14.5781 27.7236 14.3828C27.6704 14.1787 27.6705 13.9698 27.7236 13.7568C29.7212 13.8279 31.2664 13.8633 32.3584 13.8633C33.6635 13.8633 35.4835 13.8279 37.8184 13.7568Z" fill="white"/>
<path d="M65.8727 24.3547V19.084H67.2426V28H65.8727V26.4908H65.7799C65.5709 26.9436 65.2458 27.3286 64.8047 27.6459C64.3635 27.9594 63.8063 28.1161 63.1329 28.1161C62.5757 28.1161 62.0803 27.9942 61.6469 27.7504C61.2135 27.5027 60.873 27.1312 60.6253 26.6359C60.3776 26.1367 60.2538 25.5079 60.2538 24.7494V19.084H61.6237V24.6565C61.6237 25.3066 61.8056 25.8252 62.1693 26.2122C62.537 26.5991 63.0052 26.7926 63.5741 26.7926C63.9146 26.7926 64.261 26.7056 64.6131 26.5314C64.9691 26.3573 65.2671 26.0903 65.507 25.7304C65.7508 25.3705 65.8727 24.9119 65.8727 24.3547ZM69.7517 28V19.084H71.0752V20.4307H71.168C71.3306 19.9896 71.6247 19.6316 72.0503 19.3568C72.476 19.0821 72.9559 18.9447 73.4899 18.9447C73.5905 18.9447 73.7163 18.9467 73.8672 18.9505C74.0181 18.9544 74.1323 18.9602 74.2097 18.9679V20.3611C74.1632 20.3494 74.0568 20.332 73.8904 20.3088C73.7279 20.2817 73.5557 20.2682 73.3738 20.2682C72.9404 20.2682 72.5534 20.3591 72.2129 20.541C71.8762 20.719 71.6092 20.9667 71.4118 21.284C71.2183 21.5975 71.1216 21.9554 71.1216 22.3579V28H69.7517ZM76.0193 28V16.112H77.3892V20.5004H77.5053C77.6059 20.3456 77.7452 20.1482 77.9232 19.9083C78.1051 19.6645 78.3644 19.4478 78.701 19.2582C79.0416 19.0647 79.5021 18.9679 80.0826 18.9679C80.8333 18.9679 81.495 19.1556 82.0678 19.531C82.6405 19.9064 83.0874 20.4385 83.4086 21.1273C83.7298 21.8161 83.8904 22.6287 83.8904 23.5652C83.8904 24.5095 83.7298 25.3279 83.4086 26.0206C83.0874 26.7094 82.6424 27.2435 82.0736 27.6227C81.5047 27.9981 80.8488 28.1857 80.1058 28.1857C79.533 28.1857 79.0745 28.0909 78.7301 27.9013C78.3857 27.7078 78.1206 27.4892 77.9348 27.2454C77.7491 26.9977 77.6059 26.7926 77.5053 26.6301H77.3428V28H76.0193ZM77.366 23.542C77.366 24.2154 77.4646 24.8094 77.662 25.324C77.8594 25.8349 78.1477 26.2354 78.5269 26.5256C78.9061 26.812 79.3705 26.9552 79.92 26.9552C80.4928 26.9552 80.9707 26.8042 81.3538 26.5024C81.7408 26.1967 82.031 25.7865 82.2245 25.2718C82.4218 24.7533 82.5205 24.1767 82.5205 23.542C82.5205 22.9151 82.4238 22.3501 82.2303 21.8471C82.0407 21.3401 81.7524 20.9396 81.3654 20.6455C80.9823 20.3475 80.5005 20.1985 79.92 20.1985C79.3628 20.1985 78.8945 20.3398 78.5153 20.6223C78.1361 20.9009 77.8497 21.2917 77.6562 21.7948C77.4627 22.294 77.366 22.8764 77.366 23.542ZM88.6096 28.209C88.0446 28.209 87.5319 28.1025 87.0714 27.8897C86.6109 27.673 86.2452 27.3615 85.9743 26.9552C85.7034 26.545 85.568 26.0496 85.568 25.4692C85.568 24.9584 85.6686 24.5443 85.8698 24.227C86.071 23.9058 86.34 23.6542 86.6767 23.4724C87.0133 23.2905 87.3848 23.155 87.7912 23.066C88.2014 22.9732 88.6135 22.8996 89.0275 22.8455C89.5693 22.7758 90.0085 22.7236 90.3452 22.6887C90.6857 22.65 90.9334 22.5862 91.0882 22.4972C91.2469 22.4082 91.3262 22.2534 91.3262 22.0328V21.9864C91.3262 21.4136 91.1695 20.9686 90.856 20.6513C90.5464 20.334 90.0763 20.1753 89.4455 20.1753C88.7915 20.1753 88.2787 20.3185 87.9072 20.6049C87.5357 20.8912 87.2745 21.1969 87.1236 21.522L85.8234 21.0576C86.0556 20.5158 86.3651 20.094 86.7521 19.7922C87.143 19.4865 87.5686 19.2736 88.0291 19.1537C88.4935 19.0299 88.9502 18.9679 89.399 18.9679C89.6854 18.9679 90.0143 19.0028 90.3858 19.0724C90.7612 19.1382 91.123 19.2756 91.4713 19.4846C91.8235 19.6935 92.1156 20.0089 92.3478 20.4307C92.58 20.8525 92.6961 21.4175 92.6961 22.1257V28H91.3262V26.7926H91.2565C91.1637 26.9861 91.0089 27.1932 90.7922 27.4137C90.5755 27.6343 90.2872 27.822 89.9273 27.9768C89.5674 28.1316 89.1282 28.209 88.6096 28.209ZM88.8186 26.9784C89.3603 26.9784 89.817 26.872 90.1885 26.6591C90.5639 26.4463 90.8463 26.1715 91.036 25.8349C91.2295 25.4982 91.3262 25.1441 91.3262 24.7726V23.5188C91.2682 23.5885 91.1404 23.6523 90.9431 23.7103C90.7496 23.7645 90.5252 23.8129 90.2697 23.8555C90.0182 23.8942 89.7725 23.929 89.5326 23.96C89.2965 23.987 89.1049 24.0103 88.9579 24.0296C88.6019 24.076 88.2691 24.1515 87.9595 24.256C87.6538 24.3566 87.4061 24.5095 87.2165 24.7146C87.0307 24.9158 86.9379 25.1905 86.9379 25.5388C86.9379 26.0148 87.1139 26.3747 87.4661 26.6185C87.8221 26.8584 88.2729 26.9784 88.8186 26.9784ZM96.5664 22.6365V28H95.1965V19.084H96.5199V20.4772H96.636C96.845 20.0244 97.1623 19.6606 97.588 19.3859C98.0137 19.1072 98.5632 18.9679 99.2365 18.9679C99.8402 18.9679 100.368 19.0918 100.821 19.3394C101.274 19.5832 101.626 19.9547 101.878 20.4539C102.129 20.9493 102.255 21.5762 102.255 22.3346V28H100.885V22.4275C100.885 21.7271 100.703 21.1814 100.339 20.7906C99.9756 20.3959 99.4764 20.1985 98.8418 20.1985C98.4045 20.1985 98.0137 20.2933 97.6692 20.483C97.3287 20.6726 97.0598 20.9493 96.8624 21.313C96.665 21.6768 96.5664 22.1179 96.5664 22.6365ZM114.371 16.112V28H112.978L106.5 18.6661H106.384V28H104.944V16.112H106.337L112.838 25.4692H112.954V16.112H114.371ZM120.804 28.1857C119.945 28.1857 119.204 27.9961 118.581 27.6169C117.961 27.2338 117.483 26.6998 117.147 26.0148C116.814 25.326 116.648 24.5249 116.648 23.6117C116.648 22.6984 116.814 21.8935 117.147 21.1969C117.483 20.4965 117.952 19.9509 118.552 19.56C119.155 19.1653 119.86 18.9679 120.664 18.9679C121.129 18.9679 121.587 19.0453 122.04 19.2001C122.493 19.3549 122.905 19.6064 123.277 19.9547C123.648 20.2991 123.944 20.7558 124.165 21.3246C124.385 21.8935 124.496 22.5939 124.496 23.4259V24.0064H117.623V22.8222H123.102C123.102 22.3192 123.002 21.8703 122.801 21.4756C122.603 21.0808 122.321 20.7693 121.953 20.541C121.589 20.3127 121.16 20.1985 120.664 20.1985C120.119 20.1985 119.647 20.334 119.248 20.6049C118.853 20.8719 118.55 21.2201 118.337 21.6497C118.124 22.0792 118.018 22.5397 118.018 23.0312V23.8206C118.018 24.494 118.134 25.0648 118.366 25.533C118.602 25.9974 118.929 26.3515 119.347 26.5953C119.765 26.8352 120.25 26.9552 120.804 26.9552C121.164 26.9552 121.489 26.9049 121.779 26.8042C122.073 26.6998 122.327 26.545 122.539 26.3399C122.752 26.1309 122.917 25.8716 123.033 25.562L124.356 25.9335C124.217 26.3824 123.983 26.7771 123.654 27.1177C123.325 27.4544 122.919 27.7175 122.435 27.9071C121.951 28.0929 121.407 28.1857 120.804 28.1857ZM132.895 21.0808L131.664 21.4291C131.587 21.224 131.473 21.0247 131.322 20.8312C131.175 20.6339 130.974 20.4713 130.718 20.3436C130.463 20.2159 130.136 20.1521 129.737 20.1521C129.192 20.1521 128.737 20.2779 128.373 20.5294C128.013 20.7771 127.833 21.0924 127.833 21.4756C127.833 21.8161 127.957 22.085 128.205 22.2824C128.452 22.4798 128.839 22.6442 129.366 22.7758L130.689 23.1009C131.486 23.2943 132.08 23.5904 132.471 23.989C132.862 24.3837 133.057 24.8926 133.057 25.5156C133.057 26.0264 132.91 26.483 132.616 26.8855C132.326 27.288 131.92 27.6053 131.397 27.8375C130.875 28.0697 130.267 28.1857 129.575 28.1857C128.665 28.1857 127.913 27.9884 127.317 27.5937C126.721 27.199 126.343 26.6224 126.185 25.8639L127.485 25.5388C127.609 26.0187 127.843 26.3786 128.187 26.6185C128.536 26.8584 128.99 26.9784 129.551 26.9784C130.19 26.9784 130.697 26.8429 131.072 26.5721C131.451 26.2973 131.641 25.9684 131.641 25.5853C131.641 25.2757 131.533 25.0164 131.316 24.8074C131.099 24.5946 130.767 24.4359 130.318 24.3314L128.832 23.9832C128.015 23.7897 127.415 23.4898 127.032 23.0834C126.653 22.6732 126.463 22.1605 126.463 21.5452C126.463 21.0421 126.605 20.5971 126.887 20.2101C127.173 19.8232 127.562 19.5194 128.054 19.2988C128.549 19.0782 129.11 18.9679 129.737 18.9679C130.619 18.9679 131.312 19.1614 131.815 19.5484C132.322 19.9354 132.682 20.4462 132.895 21.0808ZM138.997 19.084V20.245H134.377V19.084H138.997ZM135.723 16.9479H137.093V25.4459C137.093 25.8329 137.149 26.1232 137.261 26.3166C137.378 26.5063 137.525 26.634 137.703 26.6998C137.884 26.7617 138.076 26.7926 138.277 26.7926C138.428 26.7926 138.552 26.7849 138.649 26.7694C138.745 26.7501 138.823 26.7346 138.881 26.723L139.16 27.9536C139.067 27.9884 138.937 28.0232 138.771 28.058C138.604 28.0967 138.393 28.1161 138.138 28.1161C137.751 28.1161 137.372 28.0329 137 27.8665C136.633 27.7001 136.327 27.4466 136.083 27.1061C135.843 26.7655 135.723 26.336 135.723 25.8174V16.9479Z" fill="white"/>
</g>
<defs>
<clipPath id="clip0_118_228">
<rect width="140" height="44" fill="white"/>
</clipPath>
</defs>
</svg>
